<?xml version="1.0" encoding="utf-8"?>
<!-- Generator: Adobe Illustrator 21.0.2, SVG Export Plug-In . SVG Version: 6.00 Build 0)  -->
<svg version="1.1" id="Layer_1" xmlns="http://www.w3.org/2000/svg" xmlns:xlink="http://www.w3.org/1999/xlink" x="0px" y="0px"
	 viewBox="0 0 512 512" style="enable-background:new 0 0 512 512;" xml:space="preserve">
<style type="text/css">
	.st0{fill:#FFFFFF;}
	.st1{fill:#1B98E0;}
	.st2{fill:none;stroke:#27375C;stroke-width:41.0781;stroke-linecap:round;stroke-miterlimit:10;}
</style>
<g>
	<path class="st0" d="M150.5,371.7V141.1c0-15.2,9.5-25.1,23.8-25.1h162.5c13.9,0,20.8,6.9,20.8,18.6v2.6c0,12.1-6.9,18.6-20.8,18.6
		H195.1v78.4h109.6c14.3,0,20.8,6.1,20.8,17.8v1.3c0,12.1-6.9,18.6-20.8,18.6H195.1V357h144.3c13.9,0,20.4,6.1,20.4,17.8v2.2
		c0,12.6-6.5,19.5-20.4,19.5H174.3C160,396.4,150.5,386.9,150.5,371.7z"/>
</g>
<path class="st1" d="M76.5,11h363c33.4,0,60.5,27.1,60.5,60.5v363c0,33.4-27.1,60.5-60.5,60.5h-363C43.1,495,16,467.9,16,434.5v-363
	C16,38.1,43.1,11,76.5,11z"/>
<path class="st2" d="M257.9,373.1c0-51.2,0-102.4,0-153.6"/>
<path class="st2" d="M134.1,395.3l2-66.5"/>
<path class="st2" d="M382,350.5l-2-241.1"/>
</svg>
